<?xml version="1.0" standalone="no"?>
<!DOCTYPE svg PUBLIC "-//W3C//DTD SVG 20010904//EN"
 "http://www.w3.org/TR/2001/REC-SVG-20010904/DTD/svg10.dtd">
<svg version="1.0" xmlns="http://www.w3.org/2000/svg"
 width="421.000000pt" height="421.000000pt" viewBox="0 0 421.000000 421.000000"
 preserveAspectRatio="xMidYMid meet">
<metadata>
Created by potrace 1.14, written by Peter Selinger 2001-2017
</metadata>
<g transform="translate(0.000000,421.000000) scale(0.100000,-0.100000)"
fill="#000000" stroke="none">
<path d="M1960 3609 c-177 -29 -337 -87 -441 -159 -18 -13 -36 -27 -39 -30 -3
-4 -12 -11 -22 -16 -17 -9 -89 -76 -124 -116 -63 -71 -130 -201 -149 -287 -3
-12 -8 -31 -11 -43 -3 -13 -7 -36 -9 -53 -3 -16 -7 -41 -10 -55 -2 -14 -8 -61
-11 -105 -4 -44 -8 -91 -9 -105 -2 -14 -3 -35 -4 -47 -1 -12 -8 -28 -16 -37
-29 -29 -35 -63 -16 -88 9 -13 18 -38 19 -56 3 -46 24 -92 55 -122 30 -28 35
-58 12 -66 -8 -4 -15 -17 -15 -30 0 -24 -1 -24 -29 -9 -28 14 -32 14 -56 -8
-37 -32 -46 -115 -23 -232 9 -49 17 -92 17 -95 1 -3 -32 -5 -71 -5 -142 2
-163 -22 -153 -178 3 -56 8 -149 10 -207 2 -58 7 -141 9 -185 3 -44 8 -138 11
-210 3 -71 8 -157 10 -190 17 -281 22 -455 14 -535 l-4 -45 1196 -3 1197 -2
-7 33 c-5 18 -6 41 -5 52 5 30 14 174 29 485 3 58 7 152 10 210 3 58 8 141 10
185 2 44 7 134 10 200 12 222 13 320 4 342 -12 33 -47 46 -129 48 -83 1 -81
-2 -65 75 11 55 14 81 16 140 1 62 -10 97 -38 122 -17 16 -22 16 -47 3 -36
-19 -36 -19 -36 4 0 10 -7 24 -15 31 -21 18 -19 43 8 68 32 30 49 52 40 52 -4
0 -2 5 5 12 7 7 12 31 12 55 0 29 5 46 14 49 26 10 27 36 2 78 -17 30 -26 64
-30 116 -4 41 -9 91 -11 110 -2 19 -7 57 -10 84 -9 77 -35 182 -62 248 -23 58
-81 157 -106 183 -7 7 -23 25 -37 41 -14 16 -45 45 -69 64 -23 19 -55 45 -69
57 -15 13 -33 23 -39 23 -7 0 -13 3 -13 8 0 7 -113 64 -135 68 -5 1 -26 9 -46
18 -20 8 -47 17 -60 20 -57 13 -126 27 -154 32 -57 10 -260 12 -315 3z"/>
</g>
</svg>
